<svg width="135" height="32" viewBox="0 0 135 32" fill="none" xmlns="http://www.w3.org/2000/svg">
<path d="M10.2538 5.58487C8.99355 5.57124 7.5011 5.51675 7.3904 7.21017C7.31603 8.34044 7.538 9.39748 7.72477 10.5022C8.05516 12.4619 8.05914 15.1073 5.76397 15.9231C5.75491 15.9263 5.74693 15.9321 5.74091 15.9397C5.7349 15.9473 5.73109 15.9565 5.72991 15.9662C5.72139 16.0315 5.75091 16.0639 5.81109 16.0871C7.92857 16.887 8.02053 19.1805 7.78835 21.0715C7.71171 21.6914 7.4852 22.682 7.41027 23.4563C7.26097 25.0022 7.36201 26.3402 9.30748 26.3828C10.0504 26.399 10.7848 26.4006 11.5107 26.3873C11.5193 26.3872 11.5278 26.3887 11.5358 26.3919C11.5438 26.395 11.5511 26.3997 11.5572 26.4057C11.5633 26.4117 11.5682 26.4188 11.5715 26.4267C11.5748 26.4345 11.5765 26.4429 11.5765 26.4515L11.5777 28.7654C11.5777 28.7715 11.5752 28.7775 11.5709 28.7818C11.5665 28.7862 11.5606 28.7886 11.5544 28.7886C10.584 28.7977 9.61233 28.7951 8.63931 28.7807C8.29416 28.7758 7.93652 28.727 7.56638 28.6342C5.15825 28.0319 4.54741 26.1875 4.73589 23.8991C4.82501 22.8148 5.12589 21.7476 5.22126 20.6746C5.30414 19.7391 5.37397 18.7893 4.78925 17.9957C4.11143 17.0755 2.80575 17.2061 1.62836 17.2095C1.62083 17.2095 1.61361 17.2065 1.60829 17.2013C1.60297 17.1961 1.59998 17.189 1.59998 17.1816V14.8121C1.59998 14.8085 1.60068 14.805 1.60205 14.8017C1.60342 14.7984 1.60543 14.7954 1.60796 14.7928C1.61049 14.7903 1.61349 14.7883 1.6168 14.7869C1.6201 14.7856 1.62365 14.7849 1.62722 14.7849C2.49352 14.7837 3.66012 14.9086 4.4072 14.367C4.97602 13.9549 5.25816 13.2294 5.26838 12.5311C5.28598 11.2992 5.10432 10.3745 4.85737 8.99839C4.73172 8.29862 4.68593 7.5962 4.71999 6.89112C4.82047 4.81622 6.01886 3.5304 8.10512 3.25223C8.32727 3.22271 8.6677 3.207 9.12639 3.20511C9.93516 3.20208 10.7454 3.20189 11.5572 3.20454C11.5625 3.20454 11.5676 3.20664 11.5713 3.21036C11.575 3.21409 11.5771 3.21914 11.5771 3.22441V5.55819C11.5771 5.56677 11.5737 5.575 11.5676 5.58107C11.5616 5.58714 11.5533 5.59054 11.5447 5.59054C11.1095 5.5913 10.6792 5.58941 10.2538 5.58487Z" fill="#18181B"/>
<path d="M124.189 5.58884C123.519 5.58733 122.849 5.58638 122.177 5.586C122.169 5.586 122.162 5.58301 122.157 5.57769C122.152 5.57237 122.149 5.56515 122.149 5.55762V3.23406C122.149 3.22653 122.152 3.21931 122.157 3.21399C122.162 3.20867 122.169 3.20568 122.177 3.20568C123.082 3.20189 123.985 3.2 124.887 3.2C126.77 3.2 128.472 4.09638 128.905 6.05492C129.253 7.63253 128.761 9.3708 128.539 10.8848C128.479 11.2928 128.446 11.7979 128.439 12.4C128.432 12.9374 128.572 13.4311 128.858 13.8811C129.548 14.9677 130.999 14.7854 132.083 14.786C132.091 14.786 132.098 14.7889 132.103 14.7941C132.108 14.7994 132.111 14.8064 132.111 14.8138L132.113 17.1726C132.113 17.1808 132.11 17.1887 132.104 17.1947C132.098 17.2006 132.091 17.2041 132.083 17.2044C130.994 17.2293 129.606 17.021 128.881 18.0667C128.614 18.4508 128.473 18.8908 128.459 19.3866C128.422 20.6451 128.617 21.6023 128.876 23.1066C129.028 23.9905 129.091 25.0845 128.888 25.9922C128.489 27.7765 126.945 28.6859 125.21 28.7727C124.574 28.8045 123.564 28.8085 122.178 28.7847C122.17 28.7845 122.162 28.7812 122.156 28.7753C122.151 28.7695 122.148 28.7616 122.148 28.7534L122.149 26.4112C122.149 26.4078 122.15 26.4044 122.151 26.4012C122.153 26.3981 122.154 26.3953 122.157 26.3929C122.159 26.3905 122.162 26.3886 122.165 26.3874C122.169 26.3861 122.172 26.3855 122.175 26.3856C123.298 26.4117 124.169 26.4057 124.788 26.3674C124.924 26.3591 125.084 26.3215 125.267 26.2545C126.419 25.8332 126.39 24.7473 126.333 23.7277C126.289 22.9596 126.105 22.1047 125.978 21.311C125.659 19.3235 125.736 16.9705 127.918 16.0786C127.973 16.0565 127.999 16.0389 127.982 15.9753C127.98 15.9667 127.976 15.9586 127.97 15.9518C127.964 15.9451 127.956 15.9397 127.948 15.9361C125.128 14.7463 125.827 11.515 126.214 9.19084C126.324 8.53288 126.371 7.96065 126.348 7.34811C126.3 5.98112 125.423 5.59225 124.189 5.58884Z" fill="#18181B"/>
<path d="M54.2247 14.2416V6.95016C54.2247 6.93887 54.2292 6.92804 54.2372 6.92006C54.2452 6.91207 54.256 6.90759 54.2673 6.90759H56.9212C56.9288 6.90759 56.936 6.91058 56.9413 6.9159C56.9466 6.92122 56.9496 6.92844 56.9496 6.93597V25.3859C56.9496 25.3934 56.9466 25.4007 56.9413 25.406C56.936 25.4113 56.9288 25.4143 56.9212 25.4143H54.6528C54.6416 25.4142 54.6308 25.4101 54.6224 25.4027C54.6141 25.3953 54.6087 25.3851 54.6073 25.374L54.3837 23.5795C54.3812 23.5604 54.3715 23.543 54.3564 23.5311C54.3413 23.5191 54.3222 23.5134 54.3031 23.5154C54.2713 23.5182 54.2128 23.5665 54.1946 23.5994C53.1802 25.4722 51.2001 25.9894 49.2245 25.6062C45.1542 24.8165 44.2868 20.2199 45.0299 16.8149C45.7134 13.6824 48.428 11.8578 51.6009 12.4698C52.7324 12.6882 53.5991 13.281 54.2009 14.2484C54.2168 14.2741 54.2247 14.2719 54.2247 14.2416ZM47.7661 17.4002C47.0957 19.868 47.8723 23.2162 51.082 23.1038C52.6562 23.0487 53.8546 21.9837 54.1816 20.447C54.3795 19.5171 54.3797 18.5708 54.1821 17.608C53.4748 14.1638 48.6778 14.048 47.7661 17.4002Z" fill="#18181B"/>
<path d="M89.0007 14.2342C90.1162 12.7003 91.8182 12.1599 93.6637 12.4153C96.1729 12.7627 97.7681 14.6458 98.2143 17.0573C98.5328 18.7791 98.4749 20.7354 97.8028 22.3834C96.8218 24.7853 94.5624 26.0087 91.9913 25.6516C90.6198 25.4605 89.6103 24.7575 88.9627 23.5426C88.9577 23.5332 88.9506 23.5249 88.942 23.5186C88.9334 23.5122 88.9235 23.5079 88.913 23.5058C88.9024 23.5038 88.8916 23.5042 88.8813 23.5069C88.8709 23.5097 88.8613 23.5147 88.8531 23.5216C88.7657 23.596 88.6147 25.1566 88.5858 25.3848C88.5848 25.3929 88.5809 25.4005 88.5748 25.4059C88.5687 25.4114 88.5609 25.4143 88.5528 25.4143H86.2991C86.284 25.4143 86.2696 25.4083 86.259 25.3977C86.2483 25.387 86.2423 25.3726 86.2423 25.3575V6.93597C86.2423 6.92844 86.2453 6.92122 86.2507 6.9159C86.256 6.91058 86.2632 6.90759 86.2707 6.90759H88.9428C88.9516 6.90759 88.9599 6.911 88.9661 6.91706C88.9723 6.92313 88.9758 6.93136 88.9758 6.93994L88.9843 14.2291C88.9843 14.2476 88.9898 14.2493 89.0007 14.2342ZM89.0053 17.6613C88.5926 19.6806 88.9968 22.4884 91.4634 23.0175C93.1971 23.3899 94.9393 22.5111 95.4185 20.7643C95.9998 18.6429 95.6137 15.57 92.9604 15.029C91.0671 14.6429 89.3953 15.7522 89.0053 17.6613Z" fill="#18181B"/>
<path d="M103.518 23.03H107.742C107.75 23.03 107.757 23.0332 107.763 23.0388C107.769 23.0444 107.772 23.0521 107.772 23.0601V25.3694C107.772 25.3752 107.771 25.3809 107.769 25.3862C107.766 25.3915 107.763 25.3963 107.759 25.4004C107.755 25.4044 107.75 25.4076 107.745 25.4098C107.74 25.412 107.734 25.4132 107.728 25.4132L100.789 25.4149C100.781 25.4149 100.774 25.4117 100.768 25.406C100.762 25.4004 100.759 25.3928 100.759 25.3848C100.744 20.3849 100.737 15.3849 100.737 10.3847C100.737 10.1866 100.755 9.95779 100.693 9.77953C100.506 9.23966 100.083 9.27996 99.5257 9.27996C98.6397 9.27921 97.753 9.27694 96.8655 9.27315C96.862 9.27315 96.8585 9.27246 96.8553 9.27112C96.8521 9.26978 96.8491 9.26782 96.8466 9.26534C96.8442 9.26286 96.8422 9.25992 96.8409 9.25668C96.8395 9.25345 96.8388 9.24997 96.8388 9.24647L96.8337 6.94165C96.8337 6.93322 96.8371 6.92513 96.843 6.91917C96.849 6.91321 96.8571 6.90986 96.8655 6.90986C98.0732 6.90721 99.2767 6.90778 100.476 6.91156C102.384 6.91724 103.417 7.96463 103.479 9.87547C103.479 9.87774 103.478 10.1818 103.477 10.7878C103.47 14.7362 103.469 18.6845 103.474 22.6326C103.474 22.7863 103.479 22.9093 103.487 23.0016C103.488 23.0094 103.492 23.0167 103.497 23.0219C103.503 23.0271 103.511 23.03 103.518 23.03Z" fill="#18181B"/>
<path d="M23.6723 25.5449C18.7981 26.5321 15.6991 23.4438 15.0082 18.858C14.2543 13.8567 15.7195 6.89907 22.2633 7.12217C23.0115 7.14753 23.7166 7.26069 24.3785 7.46165C26.8684 8.21725 28.316 10.4358 28.5464 12.9444C28.5468 12.9474 28.5464 12.9505 28.5455 12.9534C28.5446 12.9562 28.543 12.9589 28.541 12.9612C28.539 12.9634 28.5365 12.9652 28.5337 12.9664C28.5309 12.9676 28.5279 12.9683 28.5249 12.9683L25.574 12.9688C25.5627 12.9688 25.5517 12.9648 25.543 12.9576C25.5344 12.9503 25.5287 12.9402 25.5269 12.9291C25.2663 11.3038 24.1985 9.94246 22.5051 9.73185C18.0136 9.17494 17.4198 14.6265 17.6667 17.6795C17.8887 20.4237 19.1563 23.5812 22.5761 23.0856C23.4185 22.9636 24.0589 22.6962 24.6175 22.0405C25.0966 21.4785 25.3969 20.8224 25.5184 20.0723C25.5216 20.0534 25.5314 20.0363 25.5459 20.0239C25.5604 20.0116 25.5789 20.0048 25.5979 20.0048L28.5175 20.0076C28.5208 20.0076 28.5241 20.0083 28.5271 20.0096C28.5301 20.011 28.5328 20.013 28.535 20.0155C28.5373 20.0181 28.5389 20.021 28.5399 20.0243C28.5409 20.0275 28.5412 20.0309 28.5408 20.0343C28.178 22.7808 26.4778 24.976 23.6723 25.5449Z" fill="#18181B"/>
<path d="M31.927 23.7044C30.5106 22.1171 30.1036 19.9701 30.3648 17.8918C30.8456 14.0633 34.103 11.8266 37.8685 12.4499C41.8724 13.1124 43.5033 16.8921 42.855 20.5889C42.4207 23.0675 40.6189 25.0629 38.1268 25.5653C35.8662 26.0212 33.4956 25.462 31.927 23.7044ZM34.1535 22.1393C35.2134 23.1072 36.6865 23.3644 38.0234 22.8529C39.5199 22.2801 40.1755 20.9063 40.2448 19.3548C40.2823 18.5061 40.2022 17.6835 39.8537 16.9273C39.0708 15.2299 37.1021 14.5555 35.3593 15.1817C33.4422 15.8703 32.9035 17.8163 33.0846 19.671C33.1788 20.6349 33.4399 21.4881 34.1535 22.1393Z" fill="#18181B"/>
<path d="M63.7999 25.5925C61.2561 25.1225 59.444 23.1288 59.0035 20.6054C58.6572 18.6236 58.9382 16.5651 60.0509 14.9041C61.4536 12.811 64.0088 12.0389 66.426 12.4624C69.1345 12.9376 70.9931 15.3105 71.1293 18.0099C71.157 18.5606 71.1564 19.1027 71.1276 19.6363C71.1272 19.646 71.123 19.6551 71.1159 19.6617C71.1088 19.6684 71.0994 19.6721 71.0896 19.6721L61.5859 19.6789C61.5831 19.6789 61.5802 19.6795 61.5776 19.6806C61.575 19.6817 61.5726 19.6833 61.5707 19.6853C61.5687 19.6873 61.5672 19.6897 61.5662 19.6923C61.5652 19.6949 61.5648 19.6977 61.5649 19.7005C61.6614 22.0439 63.5075 23.5948 65.8197 23.2122C66.8836 23.0368 67.6619 22.4282 68.0491 21.4109C68.0519 21.4036 68.0569 21.3974 68.0634 21.393C68.0699 21.3886 68.0776 21.3864 68.0854 21.3865L70.8023 21.3973C70.8043 21.3973 70.8062 21.3978 70.8079 21.3987C70.8096 21.3995 70.8111 21.4008 70.8122 21.4023C70.8134 21.4039 70.8142 21.4056 70.8145 21.4075C70.8149 21.4094 70.8148 21.4114 70.8143 21.4132C70.4608 22.7488 69.734 23.8337 68.6338 24.6678C67.2957 25.6822 65.4053 25.8889 63.7999 25.5925ZM68.4101 17.5671C68.2455 15.1828 65.6818 14.1525 63.6722 15.0346C62.603 15.5039 61.9343 16.3471 61.666 17.5643C61.6652 17.5679 61.6653 17.5717 61.6661 17.5753C61.667 17.5789 61.6687 17.5822 61.671 17.5851C61.6734 17.588 61.6763 17.5903 61.6797 17.5919C61.683 17.5935 61.6867 17.5944 61.6904 17.5944H68.3851C68.3886 17.5944 68.3921 17.5937 68.3952 17.5923C68.3984 17.5909 68.4013 17.5888 68.4036 17.5863C68.406 17.5837 68.4078 17.5807 68.4089 17.5774C68.41 17.5741 68.4104 17.5706 68.4101 17.5671Z" fill="#18181B"/>
<path d="M81.497 23.5245C81.4248 23.4991 81.3701 23.5146 81.333 23.571C80.729 24.4997 79.8751 25.3564 78.7585 25.5789C76.3901 26.0524 73.4994 25.3757 72.8863 22.6905C72.5679 21.2957 73.0271 19.6806 74.2408 18.8484C75.2882 18.1297 76.5201 17.8793 77.7736 17.8651C78.9502 17.8523 80.127 17.8475 81.304 17.851C81.3117 17.851 81.3192 17.8481 81.325 17.8429C81.3307 17.8376 81.3344 17.8304 81.3352 17.8226C81.4414 16.5021 80.9952 15.1101 79.5334 14.7917C77.9989 14.4573 76.2181 14.9506 75.8287 16.6668C75.8262 16.6771 75.8204 16.6863 75.8122 16.6929C75.8039 16.6995 75.7937 16.7031 75.7832 16.7031L73.1441 16.6991C73.1366 16.6991 73.1292 16.6975 73.1224 16.6944C73.1156 16.6913 73.1095 16.6869 73.1046 16.6813C73.0996 16.6758 73.0958 16.6692 73.0935 16.6621C73.0912 16.655 73.0905 16.6475 73.0913 16.6401C73.4898 13.1039 76.9385 12.0355 79.9694 12.4437C80.559 12.5232 81.1002 12.6729 81.593 12.8927C83.4204 13.7068 84.0885 15.6795 84.088 17.5382C84.0872 20.1442 84.0861 22.7556 84.0846 25.3723C84.0846 25.3834 84.0801 25.3941 84.0723 25.402C84.0644 25.4099 84.0537 25.4143 84.0425 25.4143H81.8041C81.7933 25.4142 81.7828 25.4102 81.7746 25.403C81.7665 25.3958 81.7613 25.3859 81.7599 25.3751L81.5305 23.5659C81.5294 23.5566 81.5256 23.5477 81.5197 23.5404C81.5138 23.5331 81.5059 23.5276 81.497 23.5245ZM76.1471 22.8075C76.4692 23.1144 76.853 23.2989 77.2984 23.361C78.5859 23.5403 79.8326 23.261 80.6041 22.1467C81.0537 21.4976 81.2887 20.7363 81.3091 19.8628C81.3092 19.8591 81.3085 19.8555 81.3072 19.852C81.3058 19.8486 81.3038 19.8455 81.3012 19.8428C81.2986 19.8402 81.2955 19.8381 81.2921 19.8366C81.2887 19.8352 81.285 19.8345 81.2813 19.8345C79.3924 19.8345 78.2727 19.8369 77.9223 19.8418C77.3387 19.8504 76.5735 20.0116 76.1539 20.422C75.5408 21.0221 75.5108 22.2012 76.1471 22.8075Z" fill="#18181B"/>
<path d="M115.95 25.5556C112.448 26.3107 109.12 24.4231 108.366 20.858C107.527 16.8893 109.457 12.719 113.885 12.3767C115.277 12.2694 116.676 12.5158 117.848 13.3089C119.417 14.3704 120.342 16.0996 120.45 17.9957C120.479 18.5203 120.478 19.0675 120.447 19.6375C120.447 19.6509 120.441 19.6635 120.431 19.6726C120.421 19.6816 120.407 19.6863 120.394 19.6857C119.737 19.6522 118.911 19.6783 118.422 19.6789C115.916 19.6819 113.41 19.6818 110.904 19.6783C110.9 19.6783 110.897 19.6791 110.893 19.6806C110.89 19.682 110.887 19.6842 110.884 19.6869C110.882 19.6896 110.88 19.6928 110.878 19.6963C110.877 19.6998 110.876 19.7036 110.877 19.7073C111.01 22.1268 112.915 23.6686 115.324 23.1753C116.146 23.0069 116.759 22.5554 117.162 21.8208C117.237 21.6846 117.31 21.5466 117.383 21.407C117.387 21.3994 117.393 21.3931 117.4 21.3887C117.408 21.3843 117.416 21.382 117.424 21.382L120.104 21.3905C120.108 21.3905 120.111 21.3913 120.114 21.3929C120.118 21.3945 120.121 21.3968 120.123 21.3998C120.125 21.4027 120.127 21.4061 120.127 21.4097C120.128 21.4133 120.128 21.417 120.127 21.4206C119.6 23.4614 118.038 25.1055 115.95 25.5556ZM117.729 17.5671C117.633 16.2489 116.735 15.1703 115.454 14.8496C113.405 14.337 111.419 15.4508 110.986 17.5654C110.985 17.5689 110.985 17.5725 110.986 17.576C110.987 17.5794 110.989 17.5827 110.991 17.5855C110.993 17.5882 110.996 17.5905 110.999 17.592C111.002 17.5936 111.006 17.5944 111.009 17.5944H117.704C117.707 17.5944 117.711 17.5937 117.714 17.5923C117.717 17.5909 117.72 17.5888 117.722 17.5863C117.725 17.5837 117.727 17.5807 117.728 17.5774C117.729 17.5741 117.729 17.5706 117.729 17.5671Z" fill="#18181B"/>
</svg>
